# Blender v2.83.5 OBJ File: ''
# www.blender.org
mtllib random.mtl
o Cube
v 1.974436 1.130791 -0.947931
v 1.000000 -1.000000 -1.000000
v 1.000000 1.000000 1.000000
v 1.595494 -1.564264 0.867355
v -1.000000 1.000000 -1.000000
v -1.000000 -1.000000 -1.000000
v -1.000000 1.000000 1.000000
v -1.000000 -1.000000 1.000000
v -1.000000 -1.000000 0.000000
v 0.000000 -1.000000 -1.000000
v 1.000000 0.000000 -1.000000
v -1.000000 0.000000 1.000000
v 1.000000 0.000000 1.000000
v -1.000000 0.000000 -1.000000
v 0.000000 1.000000 1.000000
v 1.000000 1.000000 0.000000
v 0.000000 -1.000000 1.000000
v -1.000000 1.000000 0.000000
v 0.000000 1.000000 -1.000000
v 1.000000 -1.000000 0.000000
v 0.000000 0.000000 -1.000000
v 1.000000 0.000000 0.000000
v 0.188730 -1.741942 -0.257000
v -1.000000 0.000000 0.000000
v 0.000000 0.000000 1.000000
v 0.416539 1.205373 -0.241991
v -1.000000 -1.000000 0.500000
v -0.500000 -1.000000 -1.000000
v 1.000000 -0.500000 -1.000000
v -1.000000 0.500000 1.000000
v 1.000000 -0.500000 1.000000
v -1.000000 -0.500000 -1.000000
v -0.500000 1.000000 1.000000
v 1.000000 1.000000 0.500000
v 0.500000 -1.000000 1.000000
v -1.000000 1.000000 -0.500000
v 0.500000 1.000000 -1.000000
v 1.000000 -1.000000 -0.500000
v -1.000000 -1.000000 -0.500000
v 0.500000 -1.000000 -1.000000
v 1.000000 0.500000 -1.000000
v -1.000000 -0.500000 1.000000
v 1.000000 0.500000 1.000000
v -1.000000 0.500000 -1.000000
v 0.500000 1.000000 1.000000
v 1.000000 1.000000 -0.500000
v -0.500000 -1.000000 1.000000
v -1.000000 1.000000 0.500000
v -0.500000 1.000000 -1.000000
v 1.000000 -1.000000 0.500000
v 0.500000 0.000000 -1.000000
v -0.500000 0.000000 -1.000000
v 0.409352 -0.733664 -1.223560
v 0.000000 0.500000 -1.000000
v 1.522766 -0.502411 0.450578
v 1.000000 0.000000 -0.500000
v 1.000000 -0.500000 0.000000
v 1.000000 0.500000 0.000000
v 0.000000 -1.000000 0.500000
v 0.000000 -1.000000 -0.500000
v -0.500000 -1.000000 0.000000
v 0.500000 -1.000000 0.000000
v -1.000000 0.000000 -0.500000
v -1.000000 0.000000 0.500000
v -1.000000 -0.500000 0.000000
v -1.578996 0.146544 -0.267304
v -0.500000 0.000000 1.000000
v 0.500000 0.000000 1.000000
v 0.000000 -0.500000 1.000000
v -0.931657 0.866079 1.582447
v 0.000000 1.000000 0.500000
v 0.000000 1.000000 -0.500000
v 0.500000 1.000000 0.000000
v -0.500000 1.000000 0.000000
v -0.500000 1.000000 -0.500000
v 0.500000 1.000000 -0.500000
v 0.500000 1.000000 0.500000
v 0.500000 0.500000 1.000000
v 0.500000 -0.500000 1.000000
v -0.500000 -0.500000 1.000000
v -1.000000 0.500000 0.500000
v -1.000000 -0.500000 0.500000
v -1.365803 -0.721490 -0.472713
v 0.500000 -1.000000 -0.500000
v -0.500000 -1.000000 -0.500000
v -0.500000 -1.000000 0.500000
v 1.000000 0.500000 -0.500000
v 1.000000 -0.500000 -0.500000
v 1.000000 -0.500000 0.500000
v -0.714712 0.192214 -1.544207
v -0.795737 -0.488302 -1.268020
v 0.500000 -0.500000 -1.000000
v 0.730927 0.413587 -1.605771
v 1.000000 0.500000 0.500000
v 0.500000 -1.000000 0.500000
v -1.000000 0.500000 -0.500000
v -0.500000 0.500000 1.000000
v -0.500000 1.000000 0.500000
vt 0.812500 0.687500
vt 0.875000 0.687500
vt 0.875000 0.750000
vt 0.812500 0.750000
vt 0.562500 0.937500
vt 0.625000 0.937500
vt 0.625000 1.000000
vt 0.562500 1.000000
vt 0.562500 0.187500
vt 0.625000 0.187500
vt 0.625000 0.250000
vt 0.562500 0.250000
vt 0.312500 0.687500
vt 0.375000 0.687500
vt 0.375000 0.750000
vt 0.312500 0.750000
vt 0.562500 0.687500
vt 0.625000 0.687500
vt 0.625000 0.750000
vt 0.562500 0.750000
vt 0.562500 0.437500
vt 0.625000 0.437500
vt 0.625000 0.500000
vt 0.562500 0.500000
vt 0.437500 0.437500
vt 0.500000 0.437500
vt 0.500000 0.500000
vt 0.437500 0.500000
vt 0.437500 0.312500
vt 0.500000 0.312500
vt 0.500000 0.375000
vt 0.437500 0.375000
vt 0.562500 0.312500
vt 0.625000 0.312500
vt 0.625000 0.375000
vt 0.562500 0.375000
vt 0.437500 0.687500
vt 0.500000 0.687500
vt 0.500000 0.750000
vt 0.437500 0.750000
vt 0.437500 0.562500
vt 0.500000 0.562500
vt 0.500000 0.625000
vt 0.437500 0.625000
vt 0.562500 0.562500
vt 0.625000 0.562500
vt 0.625000 0.625000
vt 0.562500 0.625000
vt 0.187500 0.687500
vt 0.250000 0.687500
vt 0.250000 0.750000
vt 0.187500 0.750000
vt 0.187500 0.562500
vt 0.250000 0.562500
vt 0.250000 0.625000
vt 0.187500 0.625000
vt 0.312500 0.562500
vt 0.375000 0.562500
vt 0.375000 0.625000
vt 0.312500 0.625000
vt 0.437500 0.187500
vt 0.500000 0.187500
vt 0.500000 0.250000
vt 0.437500 0.250000
vt 0.437500 0.062500
vt 0.500000 0.062500
vt 0.500000 0.125000
vt 0.437500 0.125000
vt 0.562500 0.062500
vt 0.625000 0.062500
vt 0.625000 0.125000
vt 0.562500 0.125000
vt 0.437500 0.937500
vt 0.500000 0.937500
vt 0.500000 1.000000
vt 0.437500 1.000000
vt 0.437500 0.812500
vt 0.500000 0.812500
vt 0.500000 0.875000
vt 0.437500 0.875000
vt 0.562500 0.812500
vt 0.625000 0.812500
vt 0.625000 0.875000
vt 0.562500 0.875000
vt 0.687500 0.687500
vt 0.750000 0.687500
vt 0.750000 0.750000
vt 0.687500 0.750000
vt 0.687500 0.562500
vt 0.750000 0.562500
vt 0.750000 0.625000
vt 0.687500 0.625000
vt 0.812500 0.562500
vt 0.875000 0.562500
vt 0.875000 0.625000
vt 0.812500 0.625000
vt 0.750000 0.500000
vt 0.812500 0.500000
vt 0.875000 0.500000
vt 0.687500 0.500000
vt 0.375000 0.812500
vt 0.375000 0.875000
vt 0.375000 0.937500
vt 0.375000 1.000000
vt 0.500000 0.000000
vt 0.562500 0.000000
vt 0.625000 0.000000
vt 0.375000 0.062500
vt 0.375000 0.125000
vt 0.375000 0.000000
vt 0.437500 0.000000
vt 0.375000 0.187500
vt 0.375000 0.250000
vt 0.250000 0.500000
vt 0.312500 0.500000
vt 0.375000 0.500000
vt 0.125000 0.562500
vt 0.125000 0.625000
vt 0.125000 0.500000
vt 0.187500 0.500000
vt 0.125000 0.687500
vt 0.125000 0.750000
vt 0.375000 0.312500
vt 0.375000 0.375000
vt 0.375000 0.437500
vn 0.0000 1.0000 0.0000
vn 0.0000 0.0000 1.0000
vn -1.0000 0.0000 0.0000
vn -0.3386 -0.8779 -0.3386
vn 1.0000 0.0000 0.0000
vn 0.3031 0.3031 -0.9035
vn 0.0000 0.0000 -1.0000
vn 0.0785 0.3783 -0.9223
vn 0.3190 0.3190 -0.8925
vn 0.5948 -0.5684 0.5684
vn 0.0000 -1.0000 0.0000
vn -0.5287 -0.6640 -0.5287
vn -0.9239 0.2706 -0.2706
vn -0.8926 0.3189 0.3189
vn 0.3292 0.3292 0.8850
vn 0.4581 0.7617 -0.4581
vn -0.1697 0.9708 -0.1697
vn -0.0677 0.9954 0.0677
vn 0.2347 0.9433 0.2347
vn 0.2386 -0.2386 0.9413
vn 0.0612 -0.0612 0.9962
vn -0.7448 -0.4719 0.4719
vn -0.8415 -0.3820 -0.3820
vn -0.8236 -0.4010 0.4010
vn -0.9176 0.2811 0.2811
vn 0.6252 -0.4671 -0.6252
vn -0.4153 -0.8093 0.4153
vn 0.6164 -0.5568 0.5568
vn 0.8619 0.3585 -0.3585
vn 0.5184 -0.6047 -0.6047
vn 0.4575 -0.4575 -0.7625
vn -0.6009 -0.6009 -0.5272
vn -0.4071 0.4071 -0.8177
vn -0.0538 -0.5277 -0.8477
vn -0.3308 -0.3308 -0.8838
vn -0.3395 0.3395 -0.8772
vn 0.4688 -0.4688 -0.7486
vn 0.2532 0.2532 -0.9337
vn 0.5530 -0.5530 -0.6232
vn -0.4237 -0.4237 -0.8006
vn -0.3855 0.3855 -0.8383
vn 0.9028 0.3041 0.3041
vn 0.8913 0.3207 -0.3207
vn 0.4955 -0.7134 0.4955
vn -0.4203 -0.6416 -0.6416
vn -0.7985 0.4257 -0.4257
vn -0.6255 -0.6255 0.4665
vn -0.6650 0.6650 -0.3399
vn -0.1220 0.9850 0.1220
usemtl Material
s off
f 98/1/1 48/2/1 7/3/1 33/4/1
f 97/5/2 33/6/2 7/7/2 30/8/2
f 96/9/3 36/10/3 5/11/3 44/12/3
f 95/13/4 50/14/4 4/15/4 35/16/4
f 94/17/5 34/18/5 3/19/5 43/20/5
f 93/21/6 37/22/6 1/23/6 41/24/6
f 92/25/7 51/26/7 11/27/7 29/28/7
f 91/29/8 52/30/8 21/31/8 53/32/8
f 90/33/9 49/34/9 19/35/9 54/36/9
f 89/37/10 55/38/10 13/39/10 31/40/10
f 88/41/5 56/42/5 22/43/5 57/44/5
f 87/45/5 46/46/5 16/47/5 58/48/5
f 86/49/11 59/50/11 17/51/11 47/52/11
f 85/53/12 60/54/12 23/55/12 61/56/12
f 84/57/11 38/58/11 20/59/11 62/60/11
f 83/61/13 63/62/13 14/63/13 32/64/13
f 82/65/3 64/66/3 24/67/3 65/68/3
f 81/69/14 48/70/14 18/71/14 66/72/14
f 80/73/2 67/74/2 12/75/2 42/76/2
f 79/77/2 68/78/2 25/79/2 69/80/2
f 78/81/15 45/82/15 15/83/15 70/84/15
f 77/85/1 71/86/1 15/87/1 45/88/1
f 76/89/16 72/90/16 26/91/16 73/92/16
f 75/93/1 36/94/1 18/95/1 74/96/1
f 72/90/17 75/93/17 74/96/17 26/91/17
f 19/97/1 49/98/1 75/93/1 72/90/1
f 49/98/1 5/99/1 36/94/1 75/93/1
f 46/46/1 76/89/1 73/92/1 16/47/1
f 1/23/18 37/100/18 76/89/18 46/46/18
f 37/100/1 19/97/1 72/90/1 76/89/1
f 34/18/1 77/85/1 45/88/1 3/19/1
f 16/47/1 73/92/1 77/85/1 34/18/1
f 73/92/19 26/91/19 71/86/19 77/85/19
f 68/78/20 78/81/20 70/84/20 25/79/20
f 13/39/2 43/20/2 78/81/2 68/78/2
f 43/20/2 3/19/2 45/82/2 78/81/2
f 35/101/2 79/77/2 69/80/2 17/102/2
f 4/15/21 31/40/21 79/77/21 35/101/21
f 31/40/2 13/39/2 68/78/2 79/77/2
f 47/103/2 80/73/2 42/76/2 8/104/2
f 17/102/2 69/80/2 80/73/2 47/103/2
f 69/80/2 25/79/2 67/74/2 80/73/2
f 64/66/22 81/69/22 66/72/22 24/67/22
f 12/105/3 30/106/3 81/69/3 64/66/3
f 30/106/3 7/107/3 48/70/3 81/69/3
f 27/108/3 82/65/3 65/68/3 9/109/3
f 8/110/3 42/111/3 82/65/3 27/108/3
f 42/111/3 12/105/3 64/66/3 82/65/3
f 39/112/23 83/61/23 32/64/23 6/113/23
f 9/109/24 65/68/24 83/61/24 39/112/24
f 65/68/25 24/67/25 63/62/25 83/61/25
f 60/54/26 84/57/26 62/60/26 23/55/26
f 10/114/11 40/115/11 84/57/11 60/54/11
f 40/115/11 2/116/11 38/58/11 84/57/11
f 39/117/11 85/53/11 61/56/11 9/118/11
f 6/119/11 28/120/11 85/53/11 39/117/11
f 28/120/11 10/114/11 60/54/11 85/53/11
f 27/121/11 86/49/11 47/52/11 8/122/11
f 9/118/11 61/56/11 86/49/11 27/121/11
f 61/56/27 23/55/27 59/50/27 86/49/27
f 56/42/5 87/45/5 58/48/5 22/43/5
f 11/27/5 41/24/5 87/45/5 56/42/5
f 41/24/28 1/23/28 46/46/28 87/45/28
f 38/58/5 88/41/5 57/44/5 20/59/5
f 2/116/5 29/28/5 88/41/5 38/58/5
f 29/28/5 11/27/5 56/42/5 88/41/5
f 50/14/29 89/37/29 31/40/29 4/15/29
f 20/59/5 57/44/5 89/37/5 50/14/5
f 57/44/30 22/43/30 55/38/30 89/37/30
f 52/30/31 90/33/31 54/36/31 21/31/31
f 14/63/32 44/12/32 90/33/32 52/30/32
f 44/12/33 5/11/33 49/34/33 90/33/33
f 28/123/34 91/29/34 53/32/34 10/124/34
f 6/113/35 32/64/35 91/29/35 28/123/35
f 32/64/36 14/63/36 52/30/36 91/29/36
f 40/125/7 92/25/7 29/28/7 2/116/7
f 10/124/37 53/32/37 92/25/37 40/125/37
f 53/32/38 21/31/38 51/26/38 92/25/38
f 51/26/39 93/21/39 41/24/39 11/27/39
f 21/31/40 54/36/40 93/21/40 51/26/40
f 54/36/41 19/35/41 37/22/41 93/21/41
f 55/38/42 94/17/42 43/20/42 13/39/42
f 22/43/43 58/48/43 94/17/43 55/38/43
f 58/48/5 16/47/5 34/18/5 94/17/5
f 59/50/11 95/13/11 35/16/11 17/51/11
f 23/55/44 62/60/44 95/13/44 59/50/44
f 62/60/11 20/59/11 50/14/11 95/13/11
f 63/62/3 96/9/3 44/12/3 14/63/3
f 24/67/45 66/72/45 96/9/45 63/62/45
f 66/72/46 18/71/46 36/10/46 96/9/46
f 67/74/2 97/5/2 30/8/2 12/75/2
f 25/79/47 70/84/47 97/5/47 67/74/47
f 70/84/48 15/83/48 33/6/48 97/5/48
f 71/86/1 98/1/1 33/4/1 15/87/1
f 26/91/49 74/96/49 98/1/49 71/86/49
f 74/96/1 18/95/1 48/2/1 98/1/1
